<svg height="512" viewBox="0 0 176 176" width="512" xmlns="http://www.w3.org/2000/svg"><g id="Layer_2" data-name="Layer 2"><g id="behance"><rect id="background" fill="#1d70fa" height="176" rx="24" width="176"/><g id="icon" fill="#fff"><path d="m104.46 57.96h27.57v6.86h-27.57z"/><path d="m143 96.51c0-14.32-11.09-25.93-24.76-25.93s-24.76 11.61-24.76 25.93 10.29 25.92 24.76 25.92c11 0 20.4-4.84 23.59-16.46h-11.61a12.45 12.45 0 0 1 -11 6.57c-6.49 0-12.2-4.65-11.86-12.47h35.45c.19-1.14.19-2.32.19-3.56zm-35.6-5.09c.86-6.44 5.41-10.55 10.9-10.55s10 4.11 10.9 10.55z"/><path d="m89.24 97.6c-.9-9.94-12.14-13.29-12.14-13.29 4.27-2 9.36-6.09 9.31-15.1-.08-13-13.64-15.64-18-15.64h-35.41v67.62h32.17c4.47 0 9.23-.59 13-2.47 10.17-5 11.95-11.17 11.07-21.12zm-41.36-32.36h15.22s9-.21 9 7.75-9 7.74-9 7.74h-15.22zm16.12 44.47h-16.12v-18.49h16.12s10.72-.25 10.72 9.24-10.72 9.25-10.72 9.25z"/></g></g></g></svg>