<svg height="512" viewBox="0 0 176 176" width="512" xmlns="http://www.w3.org/2000/svg"><g id="Layer_2" data-name="Layer 2"><g id="github"><rect id="background" fill="#262626" height="176" rx="24" width="176"/><path id="background-2" d="m88 35.29c-30.39 0-55 24.2-55 54.05 0 23.88 15.76 44.14 37.61 51.28 2.75.5 3.75-1.17 3.75-2.6s0-4.69-.06-9.19c-15.3 3.26-18.53-7.25-18.53-7.25-2.5-6.24-6.12-7.91-6.12-7.91-5-3.35.39-3.28.39-3.28 5.52.37 8.42 5.57 8.42 5.57 4.9 8.26 12.87 5.87 16 4.49a11.42 11.42 0 0 1 3.54-7.22c-12.21-1.36-25-6-25-26.71a20.64 20.64 0 0 1 5.57-14.52c-.62-1.37-2.47-6.86.48-14.31 0 0 4.61-1.45 15.13 5.54a52.85 52.85 0 0 1 27.5 0c10.45-7 15-5.54 15-5.54 3 7.45 1.1 12.94.55 14.31a20.71 20.71 0 0 1 5.64 14.5c0 20.76-12.86 25.33-25.09 26.66 1.92 1.62 3.71 4.94 3.71 10 0 7.23-.07 13-.07 14.8 0 1.42 1 3.11 3.78 2.57 22-7.1 37.75-27.37 37.75-51.21.05-29.83-24.58-54.03-54.95-54.03z" fill="#fff" data-name="background"/></g></g></svg>